# Blender v2.79 (sub 0) OBJ File: ''
# www.blender.org
o Plane
v -1.000000 -0.208442 -0.000000
v 1.000000 -0.208442 -0.000000
v -1.000000 0.463555 0.000000
v 1.000000 0.500000 0.000000
v 1.000000 -0.208442 -0.000000
v 1.000000 0.500000 0.000000
v -1.000000 0.463555 0.000000
v 1.000000 0.500000 0.000000
v -1.000000 1.135553 0.000000
v 1.000000 1.135553 0.000000
v 1.000000 0.500000 0.000000
v 1.000000 -0.208442 -0.000000
v 1.000000 0.500000 0.000000
v 1.000000 0.500000 0.000000
v 1.000000 1.135553 0.000000
v 2.029364 0.500000 0.000000
vn 0.0000 -0.0000 1.0000
s off
f 2//1 3//1 1//1
f 4//1 5//1 6//1
f 3//1 8//1 7//1
f 8//1 9//1 7//1
f 4//1 13//1 11//1
f 10//1 14//1 15//1
f 6//1 12//1 13//1
f 8//1 11//1 14//1
f 13//1 12//1 16//1
f 14//1 11//1 16//1
f 15//1 14//1 16//1
f 11//1 13//1 16//1
f 2//1 4//1 3//1
f 4//1 2//1 5//1
f 3//1 4//1 8//1
f 8//1 10//1 9//1
f 4//1 6//1 13//1
f 10//1 8//1 14//1
f 6//1 5//1 12//1
f 8//1 4//1 11//1
