# Blender v2.79 (sub 0) OBJ File: 'arrow.blend'
# www.blender.org
mtllib arrow.mtl
o Sphere
v 0.270598 0.923880 0.372421
v 0.124535 0.382683 0.856481
v 0.124535 0.707107 0.655522
v 0.106632 0.923880 0.372421
v 0.000000 1.000000 -0.000000
v -0.270598 0.923880 0.372421
v 0.000000 0.923880 0.372421
v 0.000000 0.707107 0.707106
v 0.000000 0.382683 0.923879
v -0.124535 0.382683 0.856481
v -0.124535 0.707107 0.655522
v -0.106632 0.923880 0.372421
v 0.270598 -0.923880 0.372421
v 0.124535 0.000000 0.927048
v 0.124535 -0.382683 0.856481
v 0.124535 -0.707107 0.655522
v 0.106632 -0.923880 0.372421
v 0.000000 -1.000000 -0.000000
v -0.270598 -0.923880 0.372421
v 0.000000 -0.923880 0.372421
v 0.000000 -0.707107 0.707106
v 0.000000 -0.382683 0.923879
v 0.000000 0.000000 1.000000
v -0.124535 0.000000 0.927048
v -0.124535 -0.382683 0.856481
v -0.124535 -0.707107 0.655522
v -0.106632 -0.923880 0.372421
v -0.908785 -0.000000 -0.085905
v 0.908785 -0.000000 -0.085905
v -0.908785 -0.060744 -0.060744
v 0.908785 -0.060744 -0.060744
v -0.908785 -0.085905 0.000000
v 0.908785 -0.085905 0.000000
v -0.908785 -0.060744 0.060744
v 0.908785 -0.060744 0.060744
v -0.908785 0.000000 0.085905
v 0.908785 -0.000000 0.085905
v -0.908785 0.060744 0.060744
v 0.908785 0.060744 0.060744
v -0.908785 0.085905 -0.000000
v 0.908785 0.085905 -0.000000
v -0.908785 0.060744 -0.060744
v 0.908785 0.060744 -0.060744
v 0.270598 0.897427 0.367015
v 0.112929 0.373052 0.834086
v 0.118115 0.688259 0.637288
v 0.105445 0.898439 0.363459
v 0.000000 0.973547 -0.005406
v -0.270598 0.897427 0.367015
v 0.000000 0.899058 0.361797
v 0.000000 0.688939 0.687133
v 0.000000 0.373102 0.898637
v -0.112929 0.373052 0.834086
v -0.118115 0.688259 0.637288
v -0.105445 0.898439 0.363459
v 0.270598 -0.897427 0.367015
v 0.111281 0.000000 0.903527
v 0.112929 -0.373052 0.834086
v 0.118115 -0.688259 0.637288
v 0.105445 -0.898439 0.363459
v 0.000000 -0.973547 -0.005406
v -0.270598 -0.897427 0.367015
v 0.000000 -0.899058 0.361797
v 0.000000 -0.688939 0.687133
v 0.000000 -0.373102 0.898637
v 0.000000 0.000000 0.973000
v -0.111281 0.000000 0.903527
v -0.112929 -0.373052 0.834086
v -0.118115 -0.688259 0.637288
v -0.105445 -0.898439 0.363459
v -0.891769 -0.000000 -0.064943
v 0.891769 -0.000000 -0.064943
v -0.891769 -0.045922 -0.045922
v 0.891769 -0.045922 -0.045922
v -0.891769 -0.064943 0.000000
v 0.891768 -0.064943 0.000000
v -0.891769 -0.045922 0.045922
v 0.891769 -0.045922 0.045922
v -0.891769 0.000000 0.064943
v 0.891769 -0.000000 0.064943
v -0.891769 0.045922 0.045922
v 0.891769 0.045922 0.045922
v -0.891769 0.064943 -0.000000
v 0.891769 0.064943 -0.000000
v -0.891769 0.045922 -0.045922
v 0.891769 0.045922 -0.045922
vn 0.4842 0.1647 0.8593
vn 0.1266 0.8137 0.5674
vn 0.3727 0.5023 0.7802
vn 0.0000 0.9797 0.2003
vn -0.4842 0.1647 0.8593
vn -0.1266 0.8137 0.5674
vn -0.3727 0.5023 0.7802
vn 0.4842 -0.1647 0.8593
vn 0.1266 -0.8137 0.5674
vn 0.3727 -0.5023 0.7802
vn 0.0000 -0.9797 0.2003
vn -0.4842 -0.1647 0.8593
vn -0.1266 -0.8137 0.5674
vn -0.3727 -0.5023 0.7802
vn -0.0000 -0.3827 -0.9239
vn -0.0000 -0.9239 -0.3827
vn -0.0000 -0.9239 0.3827
vn -0.0000 -0.3827 0.9239
vn 0.0000 0.3827 0.9239
vn 0.0000 0.9239 0.3827
vn 1.0000 -0.0000 0.0000
vn 0.0000 0.9239 -0.3827
vn 0.0000 0.3827 -0.9239
vn -1.0000 -0.0000 0.0000
vn -0.5063 -0.1621 -0.8470
vn -0.1271 -0.8133 -0.5678
vn -0.3858 -0.4989 -0.7760
vn -0.0021 -0.9800 -0.1990
vn 0.5063 -0.1621 -0.8470
vn 0.1271 -0.8133 -0.5678
vn 0.3858 -0.4989 -0.7760
vn 0.0021 -0.9800 -0.1990
vn -0.5063 0.1621 -0.8470
vn -0.1271 0.8133 -0.5678
vn -0.3858 0.4989 -0.7760
vn -0.0021 0.9800 -0.1990
vn 0.5063 0.1621 -0.8470
vn 0.1271 0.8133 -0.5678
vn 0.3858 0.4989 -0.7760
vn 0.0021 0.9800 -0.1990
vn 0.8147 0.1161 -0.5682
vn -0.0112 -0.2666 0.9637
vn 0.9398 -0.1859 -0.2867
vn 0.9878 -0.0927 -0.1253
vn 0.8836 -0.0872 -0.4601
vn -0.8147 0.1161 -0.5682
vn 0.0112 -0.2666 0.9637
vn -0.9398 -0.1859 -0.2867
vn -0.9878 -0.0927 -0.1253
vn -0.8836 -0.0872 -0.4601
vn 0.8147 -0.1161 -0.5682
vn -0.0112 0.2666 0.9637
vn 0.9398 0.1859 -0.2867
vn 0.9878 0.0927 -0.1253
vn 0.8836 0.0872 -0.4601
vn -0.8147 -0.1161 -0.5682
vn 0.0112 0.2666 0.9637
vn -0.9398 0.1859 -0.2867
vn -0.9878 0.0927 -0.1253
vn -0.8836 0.0872 -0.4601
usemtl None
s off
f 14//1 2//1 9//1 23//1
f 3//2 4//2 7//2 8//2
f 2//3 3//3 8//3 9//3
f 1//4 5//4 7//4 4//4
f 24//5 23//5 9//5 10//5
f 11//6 8//6 7//6 12//6
f 10//7 9//7 8//7 11//7
f 6//4 12//4 7//4 5//4
f 14//8 23//8 22//8 15//8
f 16//9 21//9 20//9 17//9
f 15//10 22//10 21//10 16//10
f 13//11 17//11 20//11 18//11
f 24//12 25//12 22//12 23//12
f 26//13 27//13 20//13 21//13
f 25//14 26//14 21//14 22//14
f 19//11 18//11 20//11 27//11
f 28//15 29//15 31//15 30//15
f 30//16 31//16 33//16 32//16
f 32//17 33//17 35//17 34//17
f 34//18 35//18 37//18 36//18
f 36//19 37//19 39//19 38//19
f 38//20 39//20 41//20 40//20
f 31//21 29//21 43//21 41//21 39//21 37//21 35//21 33//21
f 40//22 41//22 43//22 42//22
f 42//23 43//23 29//23 28//23
f 28//24 30//24 32//24 34//24 36//24 38//24 40//24 42//24
f 57//25 66//25 52//25 45//25
f 46//26 51//26 50//26 47//26
f 45//27 52//27 51//27 46//27
f 44//28 47//28 50//28 48//28
f 67//29 53//29 52//29 66//29
f 54//30 55//30 50//30 51//30
f 53//31 54//31 51//31 52//31
f 49//32 48//32 50//32 55//32
f 57//33 58//33 65//33 66//33
f 59//34 60//34 63//34 64//34
f 58//35 59//35 64//35 65//35
f 56//36 61//36 63//36 60//36
f 67//37 66//37 65//37 68//37
f 69//38 64//38 63//38 70//38
f 68//39 65//39 64//39 69//39
f 62//40 70//40 63//40 61//40
f 71//19 73//19 74//19 72//19
f 73//20 75//20 76//20 74//20
f 75//22 77//22 78//22 76//22
f 77//23 79//23 80//23 78//23
f 79//15 81//15 82//15 80//15
f 81//16 83//16 84//16 82//16
f 74//24 76//24 78//24 80//24 82//24 84//24 86//24 72//24
f 83//17 85//17 86//17 84//17
f 85//18 71//18 72//18 86//18
f 71//21 85//21 83//21 81//21 79//21 77//21 75//21 73//21
f 5//41 1//41 44//41 48//41
f 1//42 4//42 47//42 44//42
f 3//43 2//43 45//43 46//43
f 4//44 3//44 46//44 47//44
f 2//45 14//45 57//45 45//45
f 6//46 5//46 48//46 49//46
f 12//47 6//47 49//47 55//47
f 10//48 11//48 54//48 53//48
f 11//49 12//49 55//49 54//49
f 24//50 10//50 53//50 67//50
f 13//51 18//51 61//51 56//51
f 17//52 13//52 56//52 60//52
f 15//53 16//53 59//53 58//53
f 16//54 17//54 60//54 59//54
f 14//55 15//55 58//55 57//55
f 18//56 19//56 62//56 61//56
f 19//57 27//57 70//57 62//57
f 26//58 25//58 68//58 69//58
f 27//59 26//59 69//59 70//59
f 25//60 24//60 67//60 68//60
