# Blender v2.79 (sub 0) OBJ File: ''
# www.blender.org
mtllib no_volume.mtl
o Circle
v -1.667763 0.000000 -1.495493
v -3.030565 0.000000 -1.381655
v -3.515737 0.000000 -1.057473
v -3.839920 0.000000 -0.572300
v -3.953757 0.000000 0.000000
v -3.839920 0.000000 0.572300
v -3.515737 0.000000 1.057473
v -3.030565 0.000000 1.381655
v -1.667764 0.000000 1.495493
v -0.541878 -0.002353 2.312344
v -0.541878 -0.002353 1.769792
v -0.541878 -0.002353 0.957804
v -0.541878 -0.002353 0.000000
v -0.541878 -0.002353 -0.957805
v -0.541878 -0.002353 -1.769792
v -0.541878 -0.002353 -2.312344
v -2.458265 0.190699 -0.381883
v -2.604405 0.190699 -0.352814
v -2.728297 0.190699 -0.270032
v -2.811079 0.190699 -0.146140
v -2.840147 0.190699 0.000000
v -2.811079 0.190699 0.146140
v -2.728297 0.190699 0.270032
v -2.604405 0.190699 0.352814
v -2.458265 0.190699 0.381883
v -2.312124 0.190699 0.352814
v -2.188232 0.190699 0.270032
v -2.105450 0.190699 0.146140
v -2.076381 0.190699 -0.000000
v -2.105451 0.190699 -0.146140
v -2.188232 0.190699 -0.270032
v -2.312124 0.190699 -0.352814
v -0.541878 -0.180221 -2.312344
v -0.541878 -0.180221 -1.769792
v -0.541878 -0.180221 -0.957805
v -0.541878 -0.180221 0.000000
v -0.541878 -0.180221 0.957804
v -0.541878 -0.180221 1.769792
v -0.541878 -0.180221 2.312344
v -1.667764 -0.180221 1.495493
v -3.030565 -0.180221 1.381655
v -3.515737 -0.180221 1.057473
v -3.839920 -0.180221 0.572300
v -3.953757 -0.180221 0.000000
v -3.839920 -0.180221 -0.572300
v -3.515737 -0.180221 -1.057473
v -3.030565 -0.180221 -1.381655
v -1.667763 -0.180221 -1.495493
v -0.541878 0.190699 -2.312344
v -0.541878 0.190699 -1.769792
v -0.541878 0.190699 -0.957805
v -0.541878 0.190699 0.000000
v -0.541878 0.190699 0.957804
v -0.541878 0.190699 1.769792
v -0.541878 0.190699 2.312344
v -1.667764 0.190699 1.495493
v -3.030565 0.190699 1.381655
v -3.515737 0.190699 1.057473
v -3.839920 0.190699 0.572300
v -3.953757 0.190699 0.000000
v -3.839920 0.190699 -0.572300
v -3.515737 0.190699 -1.057473
v -3.030565 0.190699 -1.381655
v -1.667763 0.190699 -1.495493
v -2.458265 0.190699 -0.000000
v -2.458265 -0.180221 -0.381883
v -2.604405 -0.180221 -0.352814
v -2.728297 -0.180221 -0.270032
v -2.811079 -0.180221 -0.146140
v -2.840147 -0.180221 0.000000
v -2.811079 -0.180221 0.146140
v -2.728297 -0.180221 0.270032
v -2.604405 -0.180221 0.352814
v -2.458265 -0.180221 0.381883
v -2.312124 -0.180221 0.352814
v -2.188232 -0.180221 0.270032
v -2.105450 -0.180221 0.146140
v -2.076381 -0.180221 -0.000000
v -2.105451 -0.180221 -0.146140
v -2.188232 -0.180221 -0.270032
v -2.312124 -0.180221 -0.352814
v -2.458265 -0.180221 -0.000000
vn 0.0000 1.0000 0.0000
vn -0.5872 0.0000 -0.8094
vn -0.0832 0.0000 0.9965
vn -0.5556 0.0000 0.8315
vn -0.8315 0.0000 0.5556
vn -0.9808 0.0000 0.1951
vn -0.9808 0.0000 -0.1951
vn -0.8315 0.0000 -0.5556
vn -0.5556 0.0000 -0.8315
vn -0.0832 0.0000 -0.9965
vn 1.0000 0.0000 0.0000
vn -0.5872 0.0000 0.8094
vn 0.0000 -1.0000 0.0000
usemtl None
s off
f 50//1 31//1 30//1 51//1
f 51//1 30//1 29//1 52//1
f 60//1 21//1 20//1 61//1
f 55//1 26//1 25//1 56//1
f 54//1 27//1 26//1 55//1
f 64//1 17//1 32//1 49//1
f 53//1 28//1 27//1 54//1
f 62//1 19//1 18//1 63//1
f 52//1 29//1 28//1 53//1
f 61//1 20//1 19//1 62//1
f 49//1 32//1 31//1 50//1
f 57//1 24//1 23//1 58//1
f 56//1 25//1 24//1 57//1
f 63//1 18//1 17//1 64//1
f 16//2 33//2 48//2 1//2
f 8//3 41//3 40//3 9//3
f 7//4 42//4 41//4 8//4
f 58//1 23//1 22//1 59//1
f 6//5 43//5 42//5 7//5
f 7//5 58//5 59//5 6//5
f 5//6 44//6 43//6 6//6
f 4//7 45//7 44//7 5//7
f 3//8 46//8 45//8 4//8
f 2//9 47//9 46//9 3//9
f 2//10 63//10 64//10 1//10
f 9//3 56//3 57//3 8//3
f 16//11 49//11 50//11 15//11
f 8//4 57//4 58//4 7//4
f 13//11 36//11 35//11 14//11
f 14//11 35//11 34//11 15//11
f 12//11 37//11 36//11 13//11
f 14//11 51//11 52//11 13//11
f 11//11 38//11 37//11 12//11
f 13//11 52//11 53//11 12//11
f 10//11 39//11 38//11 11//11
f 6//6 59//6 60//6 5//6
f 5//7 60//7 61//7 4//7
f 9//12 40//12 39//12 10//12
f 12//11 53//11 54//11 11//11
f 1//10 48//10 47//10 2//10
f 4//8 61//8 62//8 3//8
f 15//11 34//11 33//11 16//11
f 11//11 54//11 55//11 10//11
f 15//11 50//11 51//11 14//11
f 3//9 62//9 63//9 2//9
f 10//12 55//12 56//12 9//12
f 1//2 64//2 49//2 16//2
f 59//1 22//1 21//1 60//1
f 25//1 65//1 24//1
f 23//1 24//1 65//1
f 22//1 23//1 65//1
f 21//1 22//1 65//1
f 20//1 21//1 65//1
f 19//1 20//1 65//1
f 18//1 19//1 65//1
f 17//1 18//1 65//1
f 32//1 17//1 65//1
f 31//1 32//1 65//1
f 30//1 31//1 65//1
f 29//1 30//1 65//1
f 28//1 29//1 65//1
f 27//1 28//1 65//1
f 26//1 27//1 65//1
f 25//1 26//1 65//1
f 34//13 35//13 79//13 80//13
f 35//13 36//13 78//13 79//13
f 44//13 45//13 69//13 70//13
f 39//13 40//13 74//13 75//13
f 38//13 39//13 75//13 76//13
f 48//13 33//13 81//13 66//13
f 37//13 38//13 76//13 77//13
f 46//13 47//13 67//13 68//13
f 36//13 37//13 77//13 78//13
f 45//13 46//13 68//13 69//13
f 33//13 34//13 80//13 81//13
f 41//13 42//13 72//13 73//13
f 40//13 41//13 73//13 74//13
f 47//13 48//13 66//13 67//13
f 42//13 43//13 71//13 72//13
f 43//13 44//13 70//13 71//13
f 74//13 73//13 82//13
f 72//13 82//13 73//13
f 71//13 82//13 72//13
f 70//13 82//13 71//13
f 69//13 82//13 70//13
f 68//13 82//13 69//13
f 67//13 82//13 68//13
f 66//13 82//13 67//13
f 81//13 82//13 66//13
f 80//13 82//13 81//13
f 79//13 82//13 80//13
f 78//13 82//13 79//13
f 77//13 82//13 78//13
f 76//13 82//13 77//13
f 75//13 82//13 76//13
f 74//13 82//13 75//13
