# Blender v2.78 (sub 0) OBJ File: ''
# www.blender.org
mtllib switch.mtl
o Cube
v -1.000000 -0.105823 1.000000
v -1.000000 0.105823 1.000000
v -1.000000 -0.105823 -1.000000
v -1.000000 0.105823 -1.000000
v 1.000000 -0.105823 1.000000
v 1.000000 0.105823 1.000000
v 1.000000 -0.105823 -1.000000
v 1.000000 0.105823 -1.000000
v -0.005748 -0.105823 -1.994252
v -0.005748 0.105823 -1.994252
v 1.994252 -0.105823 0.005748
v 1.994252 0.105823 0.005748
v 1.994252 -0.105823 -1.994252
v 1.994252 0.105823 -1.994252
v -0.005748 -0.105823 -1.160919
v -0.005748 0.105823 -1.160919
v 1.994252 -0.105823 -1.160919
v 1.994252 0.105823 -1.160919
v 1.115464 -0.105823 -1.994252
v 1.115464 0.105823 -1.994252
v 1.115464 -0.105823 0.005748
v 1.115464 0.105823 0.005748
v 1.115464 0.105823 -1.160919
v 1.115464 -0.105823 -1.160919
vn -1.0000 0.0000 0.0000
vn 0.0000 0.0000 -1.0000
vn 1.0000 0.0000 0.0000
vn 0.0000 0.0000 1.0000
vn 0.0000 -1.0000 0.0000
vn 0.0000 1.0000 0.0000
usemtl None
s off
f 1//1 2//1 4//1 3//1
f 3//2 4//2 8//2 7//2
f 7//3 8//3 6//3 5//3
f 5//4 6//4 2//4 1//4
f 3//5 7//5 5//5 1//5
f 8//6 4//6 2//6 6//6
f 15//1 16//1 10//1 9//1
f 19//2 20//2 14//2 13//2
f 17//3 18//3 12//3 11//3
f 24//5 17//5 11//5 21//5
f 20//6 10//6 16//6 23//6
f 19//5 13//5 17//5 24//5
f 13//3 14//3 18//3 17//3
f 23//1 24//1 21//1 22//1
f 9//5 19//5 24//5 15//5
f 14//6 20//6 23//6 18//6
f 18//6 23//6 22//6 12//6
f 24//4 23//4 16//4 15//4
f 11//4 12//4 22//4 21//4
f 9//2 10//2 20//2 19//2
